<svg version="1.2" xmlns="http://www.w3.org/2000/svg" viewBox="0 0 50 50" width="28" height="28">
	<style>
		.s0 { fill: #ffffff } 
	</style>
	<g>
		<g>
			<path class="s0" d="m16 3c-7.17 0-13 5.83-13 13v18c0 7.17 5.83 13 13 13h18c7.17 0 13-5.83 13-13v-18c0-7.17-5.83-13-13-13zm21 8c1.1 0 2 0.9 2 2 0 1.1-0.9 2-2 2-1.1 0-2-0.9-2-2 0-1.1 0.9-2 2-2zm-12 3c6.07 0 11 4.93 11 11 0 6.07-4.93 11-11 11-6.07 0-11-4.93-11-11 0-6.07 4.93-11 11-11zm0 2c-4.96 0-9 4.04-9 9 0 4.96 4.04 9 9 9 4.96 0 9-4.04 9-9 0-4.96-4.04-9-9-9z"/>
		</g>
	</g>
</svg>