<svg version="1.2" xmlns="http://www.w3.org/2000/svg" viewBox="0 0 50 50" width="28" height="28">
	<style>
		.s0 { fill: #ffffff } 
	</style>
	<g>
		<g>
			<path class="s0" d="m41 4h-32c-2.76 0-5 2.24-5 5v32c0 2.76 2.24 5 5 5h32c2.76 0 5-2.24 5-5v-32c0-2.76-2.24-5-5-5zm-24 16v19h-6v-19zm-6-5.53c0-1.4 1.2-2.47 3-2.47 1.8 0 2.93 1.07 3 2.47 0 1.4-1.12 2.53-3 2.53-1.8 0-3-1.13-3-2.53zm28 24.53h-6c0 0 0-9.26 0-10 0-2-1-4-3.5-4.04h-0.08c-2.42 0-3.42 2.06-3.42 4.04 0 0.91 0 10 0 10h-6v-19h6v2.56c0 0 1.93-2.56 5.81-2.56 3.97 0 7.19 2.73 7.19 8.26z"/>
		</g>
	</g>
</svg>