<svg version="1.2" xmlns="http://www.w3.org/2000/svg" viewBox="0 0 50 50" width="28" height="28">
	<style>
		.s0 { fill: #ffffff } 
	</style>
	<g>
		<g>
			<path class="s0" d="m46 9v32c0 2.76-2.24 5-5 5h-32c-2.76 0-5-2.24-5-5v-32c0-2.76 2.24-5 5-5h32c2.76 0 5 2.24 5 5zm-12.46 26.91c2.71-2.71 2.64-6.09 1.75-8.17-0.54-1.25-1.51-2.33-2.8-3.11l-0.22-0.13c-0.33-0.21-0.61-0.38-1.05-0.55q-0.01-0.42-0.06-0.8c-0.58-4.56-3.55-5.54-5.93-5.55-2.16 0-3.95 0.92-5.05 2.59l1.68 1.1q1.11-1.69 3.36-1.69c2.37 0.01 3.63 1.22 3.96 3.8q-1.72-0.35-3.81-0.23c-3.92 0.22-5.56 2.59-5.44 4.83 0.14 2.49 2.28 4.22 5.22 4.22q0.19 0.01 0.38-0.01c2.3-0.12 5.11-1.29 5.61-6.06q0.03 0.02 0.06 0.04l0.26 0.16c0.93 0.56 1.62 1.31 1.99 2.18 0.64 1.5 0.68 3.97-1.32 5.97-1.73 1.73-3.81 2.48-6.94 2.5-3.47-0.03-6.1-1.15-7.81-3.33-1.59-2.02-2.42-4.95-2.45-8.67 0.03-3.73 0.86-6.65 2.45-8.68 1.72-2.18 4.35-3.29 7.82-3.32 3.49 0.03 6.16 1.15 7.94 3.34q1.3 1.6 1.96 4l1.93-0.54q-0.77-2.79-2.34-4.72c-2.17-2.68-5.36-4.05-9.49-4.08-4.13 0.03-7.28 1.41-9.39 4.09-1.88 2.38-2.85 5.71-2.88 9.91 0.03 4.19 1 7.53 2.88 9.91 2.11 2.68 5.26 4.06 9.38 4.09 3.67-0.03 6.24-0.98 8.35-3.09zm-4.55-10.5q0.11 0.02 0.21 0.04-0.01 0.12-0.02 0.2c-0.31 3.93-2.3 4.49-3.76 4.57q-0.14 0.01-0.27 0.01c-1.85 0-3.15-0.94-3.22-2.33-0.07-1.22 0.84-2.58 3.56-2.74q0.45-0.02 0.88-0.02 1.44 0 2.62 0.27z"/>
		</g>
	</g>
</svg>