<svg version="1.2" xmlns="http://www.w3.org/2000/svg" viewBox="0 0 50 50" width="28" height="28">
	<style>
		.s0 { fill: #ffffff } 
	</style>
	<g>
		<g>
			<path class="s0" d="m41 4h-32c-2.76 0-5 2.24-5 5v32c0 2.76 2.24 5 5 5h32c2.76 0 5-2.24 5-5v-32c0-2.76-2.24-5-5-5zm-3.99 18.32q-0.34 0.04-0.69 0.04c-2.63 0-4.93-1.35-6.27-3.39 0 5.35 0 11.44 0 11.54 0 4.71-3.82 8.52-8.53 8.52-4.71 0-8.53-3.81-8.53-8.52 0-4.71 3.82-8.53 8.53-8.53q0.27 0.01 0.53 0.03v4.2q-0.26-0.04-0.53-0.05c-2.4 0-4.35 1.94-4.35 4.35 0 2.4 1.95 4.35 4.35 4.35 2.4 0 4.53-1.89 4.53-4.3 0-0.09 0.04-19.59 0.04-19.59h4.02c0.37 3.59 3.27 6.42 6.9 6.68z"/>
		</g>
	</g>
</svg>